<svg xmlns="http://www.w3.org/2000/svg" xmlns:xlink="http://www.w3.org/1999/xlink" width="90" height="90" version="1.1" viewBox="0 0 90 90"><title>logo</title><desc>Created with Sketch.</desc><defs><path id="path-1" d="M41.8864954,0.994901575 C42.8830405,0.514990742 44.5028956,0.516982644 45.4953045,0.994901575 L76.8159138,16.0781121 C77.8124589,16.5580229 78.8208647,17.8257185 79.0659694,18.8995926 L86.8015211,52.7912589 C87.0476474,53.8696088 86.6852538,55.4484075 85.9984855,56.3095876 L64.3239514,83.4885938 C63.6343208,84.3533632 62.1740175,85.0543973 61.0725268,85.0543973 L26.3092731,85.0543973 C25.2031915,85.0543973 23.7446167,84.3497739 23.0578485,83.4885938 L1.38331434,56.3095876 C0.693683723,55.4448182 0.335174016,53.865133 0.580278769,52.7912589 L8.31583044,18.8995926 C8.56195675,17.8212428 9.57347722,16.556031 10.5658861,16.0781121 L41.8864954,0.994901575 Z"/><linearGradient id="linearGradient-3" x1="12.754%" x2="88.267%" y1="-18.662%" y2="84.608%"><stop offset="0%" stop-color="#FFF"/><stop offset="100%" stop-color="#439246"/></linearGradient><linearGradient id="linearGradient-4" x1="50%" x2="148.756%" y1="4.937%" y2="175.515%"><stop offset="0%" stop-color="#FFF"/><stop offset="100%" stop-color="#439246"/></linearGradient><linearGradient id="linearGradient-5" x1="19.157%" x2="82.22%" y1="-9.048%" y2="77.908%"><stop offset="0%" stop-color="#FFF"/><stop offset="100%" stop-color="#439246"/></linearGradient><linearGradient id="linearGradient-6" x1="57.44%" x2="137.967%" y1="26.315%" y2="158.081%"><stop offset="0%" stop-color="#FFF"/><stop offset="100%" stop-color="#439246"/></linearGradient></defs><g id="Page-1" fill="none" fill-rule="evenodd" stroke="none" stroke-width="1"><g id="logo"><g id="Rectangle-2" transform="translate(1.000000, 0.000000)"><mask id="mask-2" fill="#fff"><use xlink:href="#path-1"/></mask><use id="Mask" fill="#009F76" xlink:href="#path-1"/><polygon fill="#000" points="-17.648 54.522 30.824 25.079 63.473 58.5 24.732 92.669" mask="url(#mask-2)" opacity=".29"/></g><path id="Combined-Shape" fill="url(#linearGradient-3)" d="M56.8508631,39.260019 C56.4193519,40.443987 55.6088085,41.581593 54.6736295,42.1938694 L46.5997298,47.4799783 C45.2142627,48.3870654 42.9749783,48.3916494 41.5825097,47.4799783 L33.50861,42.1938694 C32.123143,41.2867823 31,39.206345 31,37.545932 L31,26.4150304 C31,25.6897174 31.2131118,24.884885 31.5692681,24.1324532 L56.8508631,39.260019 Z" transform="translate(43.925432, 36.147233) scale(-1, 1) translate(-43.925432, -36.147233)"/><path id="Combined-Shape" fill="url(#linearGradient-4)" d="M56.0774672,25.1412464 C56.4306829,25.8903325 56.6425556,26.6907345 56.6425556,27.4119019 L56.6425556,38.5428034 C56.6425556,40.2027013 55.5264141,42.2790698 54.1339456,43.1907408 L46.0600459,48.4768498 C44.6745788,49.3839368 42.4352943,49.3885208 41.0428258,48.4768498 L32.9689261,43.1907408 C32.2918101,42.7474223 31.6773514,42.0238435 31.2260376,41.206007 L56.0774672,25.1412464 Z" transform="translate(43.821278, 37.246598) scale(-1, 1) translate(-43.821278, -37.246598)"/><path id="Combined-Shape" fill="url(#linearGradient-5)" d="M65.0702134,57.1846889 C64.5985426,58.2007851 63.8367404,59.1236871 62.9788591,59.6189851 L47.37497,68.6278947 C45.9443535,69.4538615 43.6226022,69.4525546 42.1942494,68.6278947 L26.5903603,59.6189851 C25.1597438,58.7930183 24,56.7816693 24,55.1323495 L24,37.1145303 C24,36.3487436 24.249712,35.5060005 24.6599102,34.7400631 L65.0702134,57.1846889 Z"/><path id="Combined-Shape" fill="url(#linearGradient-6)" d="M65.0189476,34.954538 C65.3636909,35.6617313 65.5692194,36.42021 65.5692194,37.1145303 L65.5692194,55.1323495 C65.5692194,56.7842831 64.4072119,58.7943252 62.9788591,59.6189851 L47.37497,68.6278947 C45.9443535,69.4538615 43.6226022,69.4525546 42.1942494,68.6278947 L26.5903603,59.6189851 C25.9237304,59.2341061 25.3159155,58.5918431 24.8568495,57.8487596 L65.0189476,34.954538 Z"/></g></g></svg>